<svg id="visual" viewBox="0 0 900 600" width="900" height="600" xmlns="http://www.w3.org/2000/svg" xmlns:xlink="http://www.w3.org/1999/xlink" version="1.1"><g transform="translate(486.6187964429659 283.7845851109008)"><path d="M171.7 -222.8C202.9 -178.5 195 -105.7 193.2 -44.6C191.4 16.5 195.7 66 185.9 130.2C176.1 194.5 152.2 273.4 100.5 304.4C48.9 335.5 -30.4 318.6 -78.9 275.5C-127.3 232.3 -144.9 163.1 -176.6 103.9C-208.4 44.8 -254.4 -4.1 -265.8 -65.5C-277.2 -127 -254 -201 -203.9 -242C-153.8 -283 -76.9 -291 -3.3 -287C70.3 -283.1 140.6 -267.2 171.7 -222.8" fill="#BB004B"></path></g></svg>